<svg width="71" height="16" viewBox="0 0 71 16" fill="none" xmlns="http://www.w3.org/2000/svg">
<path d="M69.9904 3.94111C70.0304 4.66111 70.0704 5.38778 70.1104 6.12111C70.1638 6.85444 70.1771 7.58111 70.1504 8.30111C70.1238 9.00778 70.0504 9.70111 69.9304 10.3811C69.8238 11.0611 69.6371 11.7144 69.3704 12.3411C69.1038 12.9544 68.7438 13.5278 68.2904 14.0611C67.8504 14.5944 67.2904 15.0744 66.6104 15.5011C66.5038 15.5678 66.3838 15.6078 66.2504 15.6211C66.1304 15.6344 66.0104 15.6278 65.8904 15.6011C65.7704 15.5878 65.6638 15.5544 65.5704 15.5011C65.4771 15.4611 65.4171 15.4011 65.3904 15.3211C65.3504 15.2011 65.3705 15.0678 65.4505 14.9211C65.5305 14.7744 65.6638 14.6211 65.8504 14.4611C66.4371 14.0211 66.9304 13.5544 67.3304 13.0611C67.7304 12.5678 68.0504 12.0344 68.2904 11.4611C68.5304 10.8878 68.6838 10.2678 68.7504 9.60111C68.8304 8.92111 68.8304 8.18111 68.7504 7.38111C68.5904 7.58111 68.4038 7.78778 68.1904 8.00111C67.9771 8.21444 67.7504 8.40778 67.5104 8.58111C67.2704 8.74111 67.0238 8.88111 66.7705 9.00111C66.5171 9.10778 66.2771 9.16111 66.0504 9.16111C65.8638 9.16111 65.6771 9.12111 65.4904 9.04111C65.3038 8.96111 65.1171 8.80778 64.9304 8.58111C64.7171 8.30111 64.5238 7.98778 64.3504 7.64111C64.1904 7.28111 64.0504 6.93444 63.9304 6.60111C63.8104 6.26778 63.7105 5.96778 63.6305 5.70111C63.5638 5.43444 63.5238 5.24778 63.5104 5.14111C63.4838 5.00778 63.4838 4.88111 63.5104 4.76111C63.5371 4.64111 63.6238 4.56778 63.7705 4.54111C63.9705 4.50111 64.1571 4.51444 64.3304 4.58111C64.5038 4.64778 64.6238 4.75444 64.6904 4.90111C64.7438 5.04778 64.8171 5.27444 64.9104 5.58111C65.0038 5.88778 65.1171 6.19445 65.2504 6.50111C65.3838 6.79444 65.5238 7.05444 65.6704 7.28111C65.8304 7.50778 65.9971 7.62111 66.1704 7.62111C66.3704 7.62111 66.6038 7.52111 66.8704 7.32111C67.1504 7.12111 67.4171 6.86111 67.6704 6.54111C67.9238 6.22111 68.1371 5.86778 68.3105 5.48111C68.4971 5.08111 68.5904 4.69444 68.5904 4.32111C68.5904 4.24111 68.6038 4.14778 68.6305 4.04111C68.6571 3.93444 68.6971 3.83444 68.7504 3.74111C68.8038 3.63444 68.8638 3.54778 68.9304 3.48111C69.0104 3.40111 69.0904 3.35444 69.1704 3.34111C69.3838 3.31444 69.5704 3.37444 69.7304 3.52111C69.9038 3.65444 69.9904 3.79444 69.9904 3.94111Z" fill="#E5484D"/>
<path d="M61.2908 0.881111C61.3574 2.33444 61.4708 3.84111 61.6308 5.40111C61.7908 6.94778 61.9641 8.42778 62.1508 9.84111C62.1908 10.4278 62.0308 10.7278 61.6708 10.7411C61.5908 10.7411 61.5108 10.7144 61.4308 10.6611C61.3508 10.5944 61.2774 10.5144 61.2108 10.4211C61.1441 10.3278 61.0774 10.2278 61.0108 10.1211C60.9574 10.0144 60.9241 9.92111 60.9108 9.84111C60.8041 9.16111 60.7041 8.44111 60.6108 7.68111C60.5174 6.92111 60.4308 6.16111 60.3508 5.40111C60.2841 4.62778 60.2241 3.87444 60.1708 3.14111C60.1174 2.40778 60.0841 1.73444 60.0708 1.12111C60.0974 0.801111 60.1441 0.534445 60.2108 0.321111C60.2774 0.0944446 60.4174 -0.0122221 60.6308 0.00111108C60.8574 0.0144442 61.0174 0.107778 61.1108 0.281111C61.2174 0.441112 61.2774 0.641111 61.2908 0.881111Z" fill="#E5484D"/>
<path d="M56.9858 3.70111C57.0391 3.68778 57.1191 3.68111 57.2258 3.68111C57.3325 3.66778 57.4325 3.67444 57.5258 3.70111C57.6325 3.71444 57.7191 3.74778 57.7858 3.80111C57.8658 3.84111 57.9125 3.89444 57.9258 3.96111C57.9525 4.12111 57.9258 4.26778 57.8458 4.40111C57.7791 4.52111 57.6525 4.62778 57.4658 4.72111C56.9591 4.96111 56.4325 5.23444 55.8858 5.54111C55.3391 5.83444 54.8725 6.10111 54.4858 6.34111C54.7258 6.50111 54.9991 6.68111 55.3058 6.88111C55.6258 7.08111 55.9525 7.29445 56.2858 7.52111C56.6191 7.73445 56.9525 7.96778 57.2858 8.22111C57.6191 8.46111 57.9325 8.70111 58.2258 8.94111C58.4925 9.16778 58.5391 9.37445 58.3658 9.56111C58.2858 9.65445 58.1525 9.72111 57.9658 9.76111C57.7925 9.80111 57.6258 9.78111 57.4658 9.70111C57.1725 9.55445 56.8525 9.38111 56.5058 9.18111C56.1591 8.96778 55.8058 8.75445 55.4458 8.54111C55.0858 8.31445 54.7325 8.09444 54.3858 7.88111C54.0525 7.65444 53.7458 7.44778 53.4658 7.26111C53.5191 7.72778 53.5658 8.19445 53.6058 8.66111C53.6591 9.12778 53.7058 9.59445 53.7458 10.0611C53.8258 10.3144 53.8191 10.5211 53.7258 10.6811C53.6325 10.8411 53.4791 10.9144 53.2658 10.9011C53.0391 10.8611 52.8725 10.7744 52.7658 10.6411C52.6591 10.4944 52.5791 10.3078 52.5258 10.0811C52.4458 9.53445 52.3525 8.88778 52.2458 8.14111C52.1525 7.39445 52.0525 6.62111 51.9458 5.82111C51.8391 5.02111 51.7325 4.24111 51.6258 3.48111C51.5325 2.72111 51.4458 2.04778 51.3658 1.46111C51.3391 1.27445 51.3191 1.07445 51.3058 0.861111C51.3058 0.634445 51.3791 0.487779 51.5258 0.421111C51.7258 0.341112 51.9325 0.387779 52.1458 0.561112C52.3591 0.721112 52.5191 0.967779 52.6258 1.30111C52.7325 1.91445 52.8391 2.58111 52.9458 3.30111C53.0525 4.02111 53.1591 4.78111 53.2658 5.58111C53.5325 5.42111 53.8391 5.24778 54.1858 5.06111C54.5458 4.86111 54.8991 4.67444 55.2458 4.50111C55.6058 4.31444 55.9391 4.14778 56.2458 4.00111C56.5525 3.85445 56.7991 3.75444 56.9858 3.70111Z" fill="#E5484D"/>
<path d="M47.9998 3.26111C48.3998 3.40778 48.7332 3.62778 48.9998 3.92111C49.2798 4.21445 49.4932 4.54778 49.6398 4.92111C49.7865 5.28111 49.8665 5.65445 49.8798 6.04111C49.9065 6.42778 49.8665 6.78778 49.7598 7.12111C49.6132 7.49445 49.4265 7.86111 49.1998 8.22111C48.9732 8.58111 48.7132 8.90111 48.4198 9.18111C48.1265 9.46111 47.7932 9.68778 47.4198 9.86111C47.0465 10.0344 46.6332 10.1211 46.1798 10.1211C45.6332 10.1211 45.1732 9.99445 44.7998 9.74111C44.4265 9.48778 44.1332 9.16111 43.9198 8.76111C43.7065 8.36111 43.5665 7.90778 43.4998 7.40111C43.4465 6.89445 43.4598 6.38778 43.5398 5.88111C43.5932 5.50778 43.6798 5.14778 43.7998 4.80111C43.9332 4.44111 44.0998 4.12778 44.2998 3.86111C44.4998 3.58111 44.7265 3.35445 44.9798 3.18111C45.2465 3.00778 45.5465 2.92111 45.8798 2.92111C46.0665 2.92111 46.2998 2.96111 46.5798 3.04111C46.8598 3.10778 47.1198 3.20778 47.3598 3.34111C47.5332 3.18111 47.7465 3.15445 47.9998 3.26111ZM47.2398 4.72111C47.0932 4.62778 46.9198 4.50778 46.7198 4.36111C46.5332 4.20111 46.3665 4.12111 46.2198 4.12111C46.0598 4.12111 45.8998 4.19445 45.7398 4.34111C45.5932 4.48778 45.4598 4.66111 45.3398 4.86111C45.2332 5.04778 45.1398 5.24111 45.0598 5.44111C44.9798 5.64111 44.9265 5.80111 44.8998 5.92111C44.8598 6.12111 44.8332 6.36111 44.8198 6.64111C44.8065 6.92111 44.8265 7.20111 44.8798 7.48111C44.9332 7.74778 45.0332 7.99445 45.1798 8.22111C45.3398 8.43445 45.5732 8.58778 45.8798 8.68111C46.0665 8.73445 46.2865 8.73445 46.5398 8.68111C46.7932 8.61445 47.0398 8.50111 47.2798 8.34111C47.5332 8.18111 47.7665 7.96778 47.9798 7.70111C48.2065 7.43445 48.3798 7.12778 48.4998 6.78111C48.6332 6.39445 48.6332 5.99445 48.4998 5.58111C48.3798 5.15445 48.1265 4.84778 47.7398 4.66111C47.6465 4.72778 47.5532 4.76111 47.4598 4.76111C47.3665 4.76111 47.2932 4.74778 47.2398 4.72111Z" fill="#E5484D"/>
<path d="M39.9139 3.26111C40.3139 3.40778 40.6472 3.62778 40.9139 3.92111C41.1939 4.21445 41.4072 4.54778 41.5539 4.92111C41.7006 5.28111 41.7806 5.65445 41.7939 6.04111C41.8206 6.42778 41.7806 6.78778 41.6739 7.12111C41.5272 7.49445 41.3406 7.86111 41.1139 8.22111C40.8872 8.58111 40.6272 8.90111 40.3339 9.18111C40.0406 9.46111 39.7072 9.68778 39.3339 9.86111C38.9606 10.0344 38.5472 10.1211 38.0939 10.1211C37.5472 10.1211 37.0872 9.99445 36.7139 9.74111C36.3406 9.48778 36.0472 9.16111 35.8339 8.76111C35.6206 8.36111 35.4806 7.90778 35.4139 7.40111C35.3606 6.89445 35.3739 6.38778 35.4539 5.88111C35.5072 5.50778 35.5939 5.14778 35.7139 4.80111C35.8472 4.44111 36.0139 4.12778 36.2139 3.86111C36.4139 3.58111 36.6406 3.35445 36.8939 3.18111C37.1606 3.00778 37.4606 2.92111 37.7939 2.92111C37.9806 2.92111 38.2139 2.96111 38.4939 3.04111C38.7739 3.10778 39.0339 3.20778 39.2739 3.34111C39.4472 3.18111 39.6606 3.15445 39.9139 3.26111ZM39.1539 4.72111C39.0072 4.62778 38.8339 4.50778 38.6339 4.36111C38.4472 4.20111 38.2806 4.12111 38.1339 4.12111C37.9739 4.12111 37.8139 4.19445 37.6539 4.34111C37.5072 4.48778 37.3739 4.66111 37.2539 4.86111C37.1472 5.04778 37.0539 5.24111 36.9739 5.44111C36.8939 5.64111 36.8406 5.80111 36.8139 5.92111C36.7739 6.12111 36.7472 6.36111 36.7339 6.64111C36.7206 6.92111 36.7406 7.20111 36.7939 7.48111C36.8472 7.74778 36.9472 7.99445 37.0939 8.22111C37.2539 8.43445 37.4872 8.58778 37.7939 8.68111C37.9806 8.73445 38.2006 8.73445 38.4539 8.68111C38.7072 8.61445 38.9539 8.50111 39.1939 8.34111C39.4472 8.18111 39.6806 7.96778 39.8939 7.70111C40.1206 7.43445 40.2939 7.12778 40.4139 6.78111C40.5472 6.39445 40.5472 5.99445 40.4139 5.58111C40.2939 5.15445 40.0406 4.84778 39.6539 4.66111C39.5606 4.72778 39.4672 4.76111 39.3739 4.76111C39.2806 4.76111 39.2072 4.74778 39.1539 4.72111Z" fill="#E5484D"/>
<path d="M32.8142 0.881111C32.8809 2.33444 32.9942 3.84111 33.1542 5.40111C33.3142 6.94778 33.4875 8.42778 33.6742 9.84111C33.7142 10.4278 33.5542 10.7278 33.1942 10.7411C33.1142 10.7411 33.0342 10.7144 32.9542 10.6611C32.8742 10.5944 32.8009 10.5144 32.7342 10.4211C32.6675 10.3278 32.6009 10.2278 32.5342 10.1211C32.4809 10.0144 32.4475 9.92111 32.4342 9.84111C32.3275 9.16111 32.2275 8.44111 32.1342 7.68111C32.0409 6.92111 31.9542 6.16111 31.8742 5.40111C31.8075 4.62778 31.7475 3.87444 31.6942 3.14111C31.6409 2.40778 31.6075 1.73444 31.5942 1.12111C31.6209 0.801111 31.6675 0.534445 31.7342 0.321111C31.8009 0.0944446 31.9409 -0.0122221 32.1542 0.00111108C32.3809 0.0144442 32.5409 0.107778 32.6342 0.281111C32.7409 0.441112 32.8009 0.641111 32.8142 0.881111Z" fill="#E5484D"/>
<path d="M29.9267 3.34111C29.6867 3.47445 29.4334 3.61445 29.1667 3.76111C28.9134 3.90778 28.6534 4.08111 28.3867 4.28111C28.1334 4.46778 27.8867 4.69445 27.6467 4.96111C27.42 5.21445 27.2134 5.52111 27.0267 5.88111C26.76 6.38778 26.58 6.90778 26.4867 7.44111C26.3934 7.96111 26.3334 8.47445 26.3067 8.98111C26.3067 9.22111 26.2467 9.46778 26.1267 9.72111C26.02 9.96111 25.8667 10.0811 25.6667 10.0811C25.4134 10.0811 25.2067 9.95445 25.0467 9.70111C24.9 9.43445 24.8 9.18111 24.7467 8.94111C24.52 7.99445 24.3334 7.06111 24.1867 6.14111C24.04 5.20778 23.9134 4.28111 23.8067 3.36111C23.8067 3.17445 23.86 3.05445 23.9667 3.00111C24.0867 2.94778 24.22 2.92778 24.3667 2.94111C24.5267 2.95445 24.68 2.99445 24.8267 3.06111C24.9734 3.12778 25.06 3.23445 25.0867 3.38111C25.14 3.87445 25.2067 4.39445 25.2867 4.94111C25.3667 5.47445 25.4467 5.93445 25.5267 6.32111C25.58 5.86778 25.7267 5.42778 25.9667 5.00111C26.2067 4.57445 26.5 4.18778 26.8467 3.84111C27.2067 3.49445 27.6067 3.20111 28.0467 2.96111C28.5 2.72111 28.96 2.56111 29.4267 2.48111C29.6267 2.45445 29.7934 2.45445 29.9267 2.48111C30.06 2.50778 30.1534 2.55445 30.2067 2.62111C30.26 2.68778 30.2667 2.79445 30.2267 2.94111C30.2 3.08778 30.1 3.22111 29.9267 3.34111Z" fill="#E5484D"/>
<path d="M21.775 5.54111C21.255 5.84778 20.695 6.08778 20.095 6.26111C19.495 6.42111 18.8483 6.50111 18.155 6.50111C18.1816 6.96778 18.315 7.34111 18.555 7.62111C18.795 7.88778 19.095 8.04778 19.455 8.10111C19.6683 8.12778 19.8816 8.12111 20.095 8.08111C20.3216 8.04111 20.5283 7.98111 20.715 7.90111C20.915 7.80778 21.095 7.70778 21.255 7.60111C21.415 7.49444 21.555 7.38778 21.675 7.28111C21.795 7.17444 21.9216 7.10778 22.055 7.08111C22.1883 7.04111 22.2883 7.03444 22.355 7.06111C22.5416 7.12778 22.6083 7.32778 22.555 7.66111C22.3416 8.08778 22.035 8.45444 21.635 8.76111C21.235 9.05444 20.7883 9.24111 20.295 9.32111C19.8683 9.40111 19.4283 9.38111 18.975 9.26111C18.5216 9.14111 18.115 8.90778 17.755 8.56111C17.4483 8.25444 17.215 7.89444 17.055 7.48111C16.895 7.06778 16.795 6.64111 16.755 6.20111C16.715 5.78778 16.7483 5.39444 16.855 5.02111C16.975 4.64778 17.155 4.32111 17.395 4.04111C17.635 3.74778 17.935 3.50778 18.295 3.32111C18.655 3.13444 19.075 3.02778 19.555 3.00111C20.1283 2.96111 20.6483 3.06778 21.115 3.32111C21.5816 3.57444 21.9083 3.92778 22.095 4.38111C22.2016 4.63444 22.2283 4.85444 22.175 5.04111C22.135 5.22778 22.0016 5.39444 21.775 5.54111ZM19.475 4.18111C19.3416 4.20778 19.195 4.25444 19.035 4.32111C18.8883 4.38778 18.7483 4.47444 18.615 4.58111C18.495 4.67444 18.3816 4.78778 18.275 4.92111C18.1816 5.04111 18.1283 5.18111 18.115 5.34111C18.3416 5.34111 18.5883 5.32111 18.855 5.28111C19.135 5.24111 19.4016 5.19444 19.655 5.14111C19.9216 5.07444 20.1616 5.00111 20.375 4.92111C20.6016 4.84111 20.7883 4.75444 20.935 4.66111C20.8283 4.40778 20.6283 4.25444 20.335 4.20111C20.055 4.13444 19.7683 4.12778 19.475 4.18111Z" fill="#E5484D"/>
<path d="M15.5891 2.98111C15.3757 3.34111 15.1624 3.69444 14.9491 4.04111C14.7357 4.38778 14.5024 4.78778 14.2491 5.24111C14.0091 5.68111 13.7291 6.19445 13.4091 6.78111C13.0891 7.36778 12.7157 8.08111 12.2891 8.92111C12.1824 9.12111 12.0757 9.28111 11.9691 9.40111C11.8624 9.52111 11.7357 9.58111 11.5891 9.58111C11.3891 9.58111 11.2291 9.52778 11.1091 9.42111C11.0024 9.30111 10.9091 9.17445 10.8291 9.04111C10.3891 8.30778 9.95572 7.49445 9.52906 6.60111C9.10239 5.70778 8.75572 4.83445 8.48906 3.98111C8.46239 3.91445 8.46239 3.84111 8.48906 3.76111C8.52906 3.66778 8.58239 3.60778 8.64906 3.58111C8.78239 3.51444 8.95572 3.50778 9.16906 3.56111C9.32906 3.62778 9.48906 3.74778 9.64906 3.92111C9.80906 4.09444 9.93572 4.27444 10.0291 4.46111C10.1091 4.64778 10.2024 4.86111 10.3091 5.10111C10.4157 5.34111 10.5291 5.60111 10.6491 5.88111C10.7824 6.14778 10.9157 6.41445 11.0491 6.68111C11.1824 6.94778 11.3157 7.18778 11.4491 7.40111C11.6757 7.00111 11.9157 6.57444 12.1691 6.12111C12.4357 5.65444 12.7024 5.18778 12.9691 4.72111C13.2357 4.24111 13.5024 3.78111 13.7691 3.34111C14.0491 2.90111 14.3224 2.50778 14.5891 2.16111C14.6557 2.06778 14.7491 2.01445 14.8691 2.00111C14.9891 1.98778 15.1224 2.03444 15.2691 2.14111C15.6024 2.39444 15.7091 2.67445 15.5891 2.98111Z" fill="#E5484D"/>
<path d="M7.1 6.02111C7.02 6.39445 6.87333 6.75445 6.66 7.10111C6.46 7.43445 6.22667 7.74778 5.96 8.04111C5.69333 8.33445 5.4 8.58778 5.08 8.80111C4.77333 9.01445 4.46 9.18111 4.14 9.30111C3.55333 9.51445 2.96667 9.58778 2.38 9.52111C1.80667 9.44111 1.29333 9.17445 0.84 8.72111C0.533333 8.34778 0.313333 7.92778 0.18 7.46111C0.06 6.99445 0 6.52111 0 6.04111C0.0133333 5.54778 0.08 5.07445 0.2 4.62111C0.333333 4.16778 0.5 3.76111 0.7 3.40111C0.94 2.97445 1.22667 2.62111 1.56 2.34111C1.89333 2.06111 2.26 1.89445 2.66 1.84111C2.76667 1.81444 2.85333 1.84111 2.92 1.92111C2.98667 2.00111 3.02 2.09445 3.02 2.20111C3.15333 2.06778 3.36 1.96778 3.64 1.90111C3.92 1.83444 4.23333 1.82778 4.58 1.88111C5.22 1.96111 5.72667 2.15445 6.1 2.46111C6.47333 2.76778 6.74667 3.12778 6.92 3.54111C7.10667 3.94111 7.2 4.36778 7.2 4.82111C7.21333 5.26111 7.18 5.66111 7.1 6.02111ZM2.74 3.26111C2.47333 3.38111 2.24667 3.56111 2.06 3.80111C1.88667 4.02778 1.74 4.28778 1.62 4.58111C1.51333 4.87445 1.44 5.19445 1.4 5.54111C1.37333 5.87445 1.37333 6.20111 1.4 6.52111C1.44 6.98778 1.58 7.37445 1.82 7.68111C2.06 7.97445 2.43333 8.12111 2.94 8.12111C3.23333 8.12111 3.52 8.06778 3.8 7.96111C4.09333 7.84111 4.36 7.68778 4.6 7.50111C4.84 7.31445 5.06 7.09445 5.26 6.84111C5.46 6.57445 5.62 6.30111 5.74 6.02111C5.80667 5.87445 5.86 5.69445 5.9 5.48111C5.94 5.25445 5.95333 5.02778 5.94 4.80111C5.92667 4.56111 5.87333 4.33445 5.78 4.12111C5.68667 3.90778 5.54 3.72778 5.34 3.58111C5.06 3.38111 4.72667 3.26111 4.34 3.22111C3.95333 3.18111 3.54667 3.26778 3.12 3.48111C3.04 3.53445 2.94667 3.54778 2.84 3.52111C2.74667 3.48111 2.71333 3.39445 2.74 3.26111Z" fill="#E5484D"/>
</svg>
